<?xml version="1.0" encoding="utf-8"?>
<!-- Generator: Adobe Illustrator 23.0.1, SVG Export Plug-In . SVG Version: 6.00 Build 0)  -->
<svg version="1.1" id="Layer_1" xmlns="http://www.w3.org/2000/svg" xmlns:xlink="http://www.w3.org/1999/xlink" x="0px" y="0px"
	 viewBox="0 0 792 612" style="enable-background:new 0 0 792 612;" xml:space="preserve">
<style type="text/css">
	.st0{clip-path:url(#SVGID_4_);fill:url(#SVGID_5_);}
	.st1{clip-path:url(#SVGID_7_);fill:url(#SVGID_8_);}
	.st2{clip-path:url(#SVGID_10_);fill:#FCEA10;}
	.st3{clip-path:url(#SVGID_10_);fill:#F3C200;}
	.st4{clip-path:url(#SVGID_10_);fill:#DEDC00;}
	.st5{clip-path:url(#SVGID_10_);fill:#95C11F;}
	.st6{clip-path:url(#SVGID_10_);fill:#3AAA35;}
	.st7{clip-path:url(#SVGID_10_);fill:#008D36;}
</style>
<g>
	<defs>
		<rect id="SVGID_1_" width="792" height="612"/>
	</defs>
	<clipPath id="SVGID_2_">
		<use xlink:href="#SVGID_1_"  style="overflow:visible;"/>
	</clipPath>
</g>
<g>
	<defs>
		<path id="SVGID_3_" d="M486.85,401.94L486.85,401.94c-2.05,0.54-3.88,1.6-5.5,3.18c-2.47,2.4-3.69,5.39-3.69,8.96
			c0,3.45,1.23,6.4,3.69,8.87c2.46,2.47,5.42,3.7,8.87,3.7c3.45,0,6.41-1.23,8.87-3.7c2.46-2.46,3.69-5.42,3.69-8.87
			c0-3.45-1.23-6.4-3.69-8.87c-1.8-1.8-3.87-2.95-6.2-3.43v0c-0.93-0.18-1.82-0.26-2.66-0.26
			C488.99,401.53,487.86,401.69,486.85,401.94 M217.81,392.8c-2.46,2.4-3.7,5.39-3.7,8.96c0,3.45,1.23,6.4,3.7,8.87
			c2.46,2.46,5.42,3.69,8.87,3.69c3.45,0,6.41-1.23,8.87-3.69c2.46-2.46,3.69-5.42,3.69-8.87c0-3.45-1.23-6.4-3.69-8.87
			c-2.47-2.46-5.42-3.69-8.87-3.69C223.23,389.2,220.27,390.4,217.81,392.8 M259.58,370.48c-1.73,0-3.32,0.43-4.79,1.3
			c-1.46,0.86-2.63,2.03-3.49,3.49c-0.86,1.46-1.3,3.06-1.3,4.79c0,1.82,0.46,3.5,1.37,5.04c0.91,1.54,2.14,2.76,3.67,3.67
			c1.54,0.91,3.22,1.37,5.04,1.37h7.56c-2.35,0-4.38-0.85-6.08-2.56c-1.7-1.7-2.56-3.73-2.56-6.08v-2.38c0-2.4,0.85-4.44,2.56-6.12
			c1.7-1.68,3.73-2.52,6.08-2.52H259.58z M544.1,356.31c-0.52,0.06-1.06,0.09-1.61,0.09s-1.09-0.03-1.61-0.09h-1.33v33.83h6.03
			v-33.83H544.1z M567.47,386.1c-1.73-0.14-3.06-0.43-3.99-0.86c-0.93-0.43-1.56-1.06-1.87-1.88c-0.31-0.83-0.47-1.9-0.47-3.21
			v-0.34c0-1.25,0.16-2.27,0.47-3.04c0.31-0.77,0.92-1.37,1.83-1.8c0.9-0.43,2.18-0.71,3.83-0.86c1.64-0.14,3.82-0.21,6.54-0.21
			h1.19c2.89,0,5.26,0.06,7.1,0.17c1.84,0.11,3.3,0.39,4.38,0.81c1.08,0.43,1.81,1.03,2.21,1.8c0.39,0.77,0.59,1.78,0.59,3.04v0.43
			c0,1.26-0.18,2.28-0.55,3.08c-0.37,0.8-1.05,1.43-2.04,1.88c-0.99,0.46-2.4,0.77-4.21,0.94c-1.81,0.17-4.16,0.26-7.05,0.26h-1.02
			C571.5,386.32,569.19,386.25,567.47,386.1 M574.52,355.8c-3.34,0-6.16,0.14-8.48,0.42c-2.32,0.28-4.2,0.78-5.64,1.49
			c-1.44,0.71-2.47,1.7-3.09,2.98c-0.62,1.27-0.93,2.9-0.93,4.89v0.77h5.86v-0.52c0-1.09,0.16-2,0.47-2.72
			c0.31-0.72,0.92-1.29,1.83-1.72c0.91-0.43,2.15-0.73,3.74-0.9c1.59-0.17,3.63-0.26,6.12-0.26h1.28c3.12,0,5.57,0.1,7.35,0.3
			c1.78,0.2,3.13,0.67,4.04,1.4c0.91,0.74,1.49,1.78,1.74,3.14c0.25,1.36,0.38,3.2,0.38,5.53v2.55h-0.26
			c-0.51-0.74-1.16-1.35-1.95-1.83c-0.79-0.48-1.8-0.85-3.02-1.11c-1.22-0.26-2.71-0.44-4.46-0.55c-1.76-0.11-3.82-0.17-6.2-0.17
			h-1.44c-3.23,0-5.92,0.16-8.08,0.47c-2.15,0.31-3.87,0.85-5.14,1.62c-1.28,0.76-2.18,1.8-2.72,3.1c-0.54,1.3-0.81,2.95-0.81,4.93
			v0.77c0,1.98,0.23,3.64,0.68,4.97c0.45,1.33,1.3,2.4,2.55,3.19c1.25,0.79,3,1.36,5.27,1.7c2.27,0.34,5.18,0.51,8.75,0.51h1.36
			c2.38,0,4.41-0.09,6.08-0.26c1.67-0.17,3.09-0.44,4.25-0.81c1.16-0.37,2.14-0.84,2.93-1.4c0.79-0.57,1.5-1.27,2.12-2.12h0.17v3.99
			h5.95V372c0-3.56-0.23-6.4-0.68-8.52c-0.45-2.12-1.36-3.76-2.71-4.92c-1.36-1.16-3.29-1.91-5.81-2.25
			c-2.52-0.34-5.87-0.51-10.05-0.51H574.52z M446.47,385.55c-1.98-0.28-3.51-0.85-4.59-1.71c-1.08-0.85-1.77-2.08-2.08-3.67
			c-0.31-1.59-0.47-3.73-0.47-6.4v-1.11c0-2.67,0.15-4.8,0.47-6.4c0.31-1.59,1.01-2.81,2.08-3.67c1.08-0.85,2.61-1.42,4.59-1.71
			c1.98-0.29,4.65-0.43,7.99-0.43h1.7c3.34,0,6.01,0.14,7.99,0.43c1.98,0.28,3.51,0.85,4.59,1.71c1.08,0.85,1.77,2.08,2.08,3.67
			c0.31,1.59,0.47,3.72,0.47,6.4v1.11c0,2.67-0.16,4.81-0.47,6.4c-0.31,1.59-1.01,2.82-2.08,3.67c-1.08,0.85-2.61,1.42-4.59,1.71
			c-1.98,0.28-4.65,0.43-7.99,0.43h-1.7C451.11,385.98,448.45,385.84,446.47,385.55 M454.42,355.72c-4.37,0-7.94,0.21-10.69,0.64
			c-2.76,0.43-4.9,1.25-6.43,2.47c-1.53,1.22-2.58,2.93-3.15,5.14c-0.57,2.21-0.85,5.1-0.85,8.67v1.1c0,3.57,0.27,6.46,0.81,8.67
			c0.54,2.21,1.58,3.92,3.11,5.14c1.53,1.22,3.67,2.05,6.43,2.51c2.75,0.45,6.34,0.68,10.77,0.68h1.96c4.43,0,8.01-0.23,10.73-0.68
			c2.73-0.45,4.84-1.29,6.35-2.51c1.51-1.22,2.53-2.93,3.07-5.14c0.54-2.21,0.81-5.1,0.81-8.67v-1.1c0-3.57-0.27-6.46-0.81-8.67
			c-0.54-2.21-1.58-3.92-3.11-5.14c-1.53-1.22-3.66-2.04-6.39-2.47c-2.72-0.42-6.27-0.64-10.64-0.64H454.42z M507.84,385.89
			c-3.23,0-5.82-0.14-7.78-0.42c-1.95-0.28-3.47-0.86-4.55-1.74c-1.08-0.88-1.8-2.12-2.17-3.74c-0.37-1.61-0.55-3.75-0.55-6.42
			v-0.93c0-2.66,0.18-4.8,0.55-6.42c0.37-1.61,1.08-2.85,2.12-3.7c1.05-0.85,2.56-1.4,4.55-1.66c1.98-0.26,4.59-0.38,7.82-0.38h1.7
			c3.12,0,5.62,0.14,7.52,0.43c1.9,0.28,3.36,0.85,4.38,1.71c1.02,0.85,1.69,2.09,2,3.71c0.31,1.62,0.47,3.74,0.47,6.36v0.94
			c0,2.67-0.16,4.81-0.47,6.4c-0.31,1.59-0.98,2.84-2,3.75c-1.02,0.91-2.48,1.51-4.38,1.79c-1.9,0.28-4.41,0.43-7.52,0.43
			L507.84,385.89z M509.59,355.72c-2.6,0-4.82,0.1-6.66,0.3c-1.84,0.2-3.41,0.52-4.71,0.98c-1.3,0.45-2.37,1.06-3.22,1.83
			c-0.85,0.76-1.55,1.71-2.12,2.85h-0.17v-5.35h-5.86v45.63c1.06-0.28,2.18-0.42,3.36-0.42c0.93,0,1.82,0.09,2.67,0.27V384.7h0.17
			c1.07,2.27,2.84,3.84,5.3,4.72c2.46,0.88,6.12,1.32,10.98,1.32h1.27c3.9,0,7.11-0.23,9.62-0.68c2.51-0.45,4.49-1.3,5.94-2.55
			c1.44-1.25,2.43-2.98,2.97-5.18c0.54-2.21,0.81-5.1,0.81-8.67v-0.93c0-3.57-0.27-6.46-0.81-8.67c-0.53-2.21-1.51-3.92-2.92-5.14
			c-1.41-1.22-3.38-2.05-5.89-2.51c-2.52-0.45-5.75-0.68-9.71-0.68H509.59z M261.23,354.14c-2.07,0-3.89,0.65-5.47,1.94
			c-1.58,1.3-2.57,2.95-2.95,4.97c-0.14,0.57-0.22,1.15-0.22,1.73v1.3l7.2,2.95v-4.25c0-2.4,0.85-4.44,2.56-6.12
			c1.7-1.68,3.73-2.52,6.08-2.52H261.23z M268.43,354.14c2.11,0,3.64,0.52,4.57,1.55c0.94,1.03,1.49,2.29,1.66,3.78
			s0.25,3.79,0.25,6.91v15.55c-0.1,2.74-0.58,4.79-1.44,6.16c-0.86,1.37-2.55,2.05-5.04,2.05h3.24c0.58,0,1.26-0.18,2.05-0.54
			c0.79-0.36,1.19-0.73,1.19-1.12v1.66h9v-23.76c0-2.21-0.55-4.25-1.66-6.12c-1.1-1.87-2.59-3.36-4.46-4.46
			c-1.87-1.1-3.91-1.65-6.12-1.65H268.43z M340.18,354.75c-1.27,0.41-2.35,0.88-3.24,1.4c-0.89,0.53-1.43,0.96-1.62,1.3v-3.31h-9v36
			h9v-27.36c0-2.4,0.85-4.44,2.56-6.12c1.7-1.68,3.73-2.52,6.08-2.52C342.71,354.14,341.45,354.35,340.18,354.75 M343.96,354.14
			c2.11,0,3.64,0.52,4.57,1.55c0.94,1.03,1.49,2.29,1.66,3.78c0.17,1.49,0.25,3.79,0.25,6.91V390v0.14h9v-27.36
			c0-2.35,0.83-4.37,2.48-6.05c1.55-1.57,3.39-2.42,5.55-2.57c-1.54,0.09-2.91,0.43-4.11,1.02c-1.32,0.65-2.63,1.4-3.92,2.27
			c-0.82,0.58-1.51,1.27-2.09,2.09c-1.15-1.63-2.62-2.94-4.39-3.92c-1.78-0.98-3.7-1.48-5.76-1.48H343.96z M367.47,354.16
			c0.15-0.01,0.31-0.02,0.46-0.02C367.78,354.14,367.62,354.15,367.47,354.16 M368.08,354.14c2.11,0,3.62,0.52,4.54,1.55
			c0.91,1.03,1.46,2.32,1.66,3.85c0.19,1.54,0.29,3.82,0.29,6.84v23.76h8.93v-23.76c0-2.21-0.55-4.25-1.66-6.12
			c-1.1-1.87-2.59-3.36-4.46-4.46c-1.87-1.1-3.91-1.65-6.12-1.65H368.08z M301.62,357.6v-3.46h-9v36h9v-27.36
			c0-2.06,0.67-3.89,2.02-5.47c0.62-0.72,1.36-1.28,2.2-1.69c0.84-0.41,1.72-0.61,2.63-0.61c0.91,0,1.81,0.2,2.7,0.61
			c0.89,0.41,1.62,0.97,2.2,1.69c1.29,1.58,1.94,3.41,1.94,5.47v4.25l7.2-2.95v-1.3c0-2.26-0.86-4.15-2.59-5.69
			c-1.73-1.54-3.74-2.52-6.05-2.95c-0.96-0.19-2.06-0.29-3.31-0.29C306.52,353.85,303.54,355.1,301.62,357.6 M396.49,347.47v8.75
			h-6.71v4.42h6.71v15.55c0,3.01,0.2,5.46,0.59,7.35c0.4,1.9,1.09,3.37,2.08,4.42s2.35,1.77,4.08,2.17c1.73,0.4,3.92,0.6,6.59,0.6
			h1.62c2.89,0,5.28-0.19,7.18-0.55c1.9-0.37,3.41-1.02,4.55-1.96c1.13-0.93,1.93-2.2,2.38-3.78c0.45-1.59,0.68-3.57,0.68-5.95
			v-3.57h-5.35v2.66c0,1.71-0.09,3.11-0.26,4.2c-0.17,1.08-0.57,1.94-1.2,2.57c-0.63,0.63-1.52,1.05-2.69,1.28
			c-1.17,0.23-2.72,0.34-4.65,0.34h-1.28c-1.82,0-3.27-0.11-4.36-0.34c-1.08-0.23-1.91-0.71-2.48-1.45c-0.57-0.74-0.95-1.8-1.15-3.2
			c-0.2-1.39-0.3-3.25-0.3-5.59v-14.76h23.63v-4.42h-23.63v-8.75H396.49z M221.99,336.14v53.91c2.02-0.85,5.72-1.35,9-0.12v-25.93
			h12.96l0.72-1.8h-13.68v-24.26h20.81l0.72-1.8H221.99z M533.62,334.88c-2.47,2.4-3.7,5.39-3.7,8.96c0,3.45,1.23,6.4,3.7,8.87
			c2.07,2.07,4.49,3.27,7.26,3.6h3.22c2.77-0.33,5.19-1.53,7.26-3.6c2.46-2.46,3.69-5.42,3.69-8.87c0-3.45-1.23-6.4-3.69-8.87
			c-2.47-2.46-5.43-3.7-8.87-3.7C539.04,331.28,536.09,332.48,533.62,334.88"/>
	</defs>
	<clipPath id="SVGID_4_">
		<use xlink:href="#SVGID_3_"  style="overflow:visible;"/>
	</clipPath>
	
		<linearGradient id="SVGID_5_" gradientUnits="userSpaceOnUse" x1="-2.242163e-06" y1="612" x2="1" y2="612" gradientTransform="matrix(381.1018 0 0 -381.1018 214.1168 233613.2656)">
		<stop  offset="0" style="stop-color:#F3C100"/>
		<stop  offset="0.0291" style="stop-color:#F3C100"/>
		<stop  offset="0.5931" style="stop-color:#3BAA35"/>
		<stop  offset="1" style="stop-color:#3BAA35"/>
	</linearGradient>
	<rect x="214.12" y="331.28" class="st0" width="381.1" height="95.37"/>
</g>
<g>
	<defs>
		<path id="SVGID_6_" d="M427.55,243L427.55,243L427.55,243 M427.55,243L427.55,243L427.55,243 M311.18,276.22
			C311.18,276.22,311.18,276.22,311.18,276.22C311.18,276.22,311.18,276.22,311.18,276.22 M311.21,276.2l-0.07,1.01L311.21,276.2
			 M311.01,276.02c0.03,0.05,0.05,0.1,0.08,0.14C311.07,276.12,311.04,276.07,311.01,276.02 M310.98,275.95
			c0,0.01,0.01,0.01,0.01,0.02C310.98,275.96,310.98,275.96,310.98,275.95 M310.6,275.76c0,0-0.01,0-0.01,0
			C310.6,275.76,310.6,275.76,310.6,275.76 M310.82,275.74c0.05,0.03,0.09,0.1,0.13,0.17C310.91,275.84,310.87,275.77,310.82,275.74
			 M310.75,275.72C310.75,275.72,310.74,275.72,310.75,275.72C310.74,275.72,310.75,275.72,310.75,275.72 M310.43,275.69
			c0.03,0.03,0.07,0.05,0.1,0.06C310.5,275.74,310.46,275.72,310.43,275.69 M310.18,275.38c0.08,0.12,0.15,0.23,0.23,0.3
			C310.33,275.61,310.26,275.5,310.18,275.38 M309.96,274.97c0.01,0.01,0.01,0.03,0.02,0.04C309.97,275,309.97,274.98,309.96,274.97
			 M309.37,274.18c0.19,0.05,0.37,0.36,0.54,0.69C309.73,274.55,309.55,274.23,309.37,274.18 M309.32,274.18
			C309.31,274.18,309.31,274.18,309.32,274.18C309.31,274.18,309.31,274.18,309.32,274.18 M318.45,270.1
			C318.45,270.1,318.45,270.1,318.45,270.1C318.45,270.1,318.45,270.1,318.45,270.1 M310.59,269.78l-1.36,4.42L310.59,269.78z
			 M338.8,231.73c-5.11,6.9-10.4,13.68-15.92,20.25c-2.75,3.29-5.54,6.54-8.49,9.63c-1.47,1.54-2.98,3.05-4.55,4.45
			c-1.49,1.31-3.09,2.58-4.72,3.33c-0.08,0.04-0.17,0.09-0.25,0.13l-1.44,0.62l1.09,1.08c9.34,9.28,18.43,18.85,27.33,28.57
			c8.86,9.75,17.66,19.57,26.1,29.68c8.44,10.11,16.58,20.48,24.1,31.28c3.74,5.41,7.3,10.94,10.65,16.59
			c3.33,5.66,6.36,11.5,8.7,17.63l0.8,2.51c0.25-0.86,0.35-1.86,0.36-2.94c-0.19-1.7-0.46-3.39-0.74-5.11
			c-0.32-1.69-0.74-3.35-1.15-5.04l-1.42-4.97c-0.53-1.63-1.15-3.22-1.73-4.84c-2.38-6.44-5.25-12.67-8.45-18.67
			c-6.4-12.01-13.93-23.27-22.08-33.95c-8.17-10.67-16.95-20.8-26.18-30.45c-7.36-7.65-14.53-14.57-22.38-21.4c0,0,0,0,0,0
			c0.73-0.89,1.42-1.78,2.09-2.68c2.78-3.67,5.2-7.41,7.48-11.22c1.12-1.92,2.21-3.85,3.28-5.78c1.07-1.93,2.14-3.85,3.09-5.85
			c0.97-1.99,1.94-3.97,2.87-5.97c0.87-2.05,1.79-4.05,2.56-6.15c0.23-0.74,0.32-1.55,0.27-2.43L338.8,231.73z M337.26,275.04
			c0,0-0.01,0-0.01,0C337.25,275.04,337.25,275.04,337.26,275.04 M336.52,274.78c0.25,0.15,0.49,0.25,0.68,0.26
			C337.01,275.03,336.78,274.93,336.52,274.78 M336.38,274.69c0.04,0.02,0.07,0.04,0.1,0.06
			C336.45,274.74,336.42,274.71,336.38,274.69 M335.73,274.25c0.07,0.05,0.14,0.1,0.21,0.15
			C335.87,274.35,335.8,274.3,335.73,274.25 M335.53,274.1c-0.13-0.09-0.26-0.19-0.39-0.28C335.27,273.91,335.4,274.01,335.53,274.1
			c0.01,0.01,0.02,0.02,0.03,0.02C335.55,274.12,335.54,274.11,335.53,274.1 M334.67,273.52c0.07,0.04,0.15,0.09,0.23,0.14
			C334.82,273.61,334.74,273.56,334.67,273.52 M334.56,273.45c0.01,0,0.01,0.01,0.01,0.01
			C334.57,273.46,334.56,273.45,334.56,273.45 M333.41,273.23c-0.01,0.01-0.02,0.01-0.04,0.02
			C333.38,273.24,333.4,273.23,333.41,273.23 M333.77,273.16c0.07,0.01,0.15,0.02,0.23,0.04
			C333.92,273.18,333.85,273.17,333.77,273.16 M333.7,273.16c0,0-0.01,0-0.01,0C333.7,273.16,333.7,273.16,333.7,273.16
			 M342.34,269.39c-0.65,0.88-1.35,1.76-2.09,2.65c-1.19,1.39-1,1.52-2.73,2.91c1.73-1.39,1.54-1.52,2.73-2.91
			C341,271.15,341.69,270.27,342.34,269.39L342.34,269.39 M342.34,269.39L342.34,269.39 M333.45,265.65c0.01,0,0.02,0,0.02,0
			C333.46,265.66,333.45,265.66,333.45,265.65 M333.42,265.65l-0.03,4.32L333.42,265.65z M333.81,265.47
			c-0.14,0.12-0.25,0.19-0.34,0.19C333.56,265.66,333.67,265.59,333.81,265.47 M334.53,264.71c-0.26,0.3-0.5,0.57-0.7,0.74
			C334.03,265.28,334.27,265.01,334.53,264.71 M334.6,264.63c-0.02,0.02-0.03,0.04-0.05,0.05
			C334.57,264.67,334.58,264.65,334.6,264.63 M334.69,264.53C334.68,264.53,334.68,264.53,334.69,264.53
			C334.68,264.53,334.68,264.53,334.69,264.53 M334.76,264.45c0.04-0.05,0.09-0.1,0.13-0.16
			C334.85,264.34,334.8,264.39,334.76,264.45L334.76,264.45 M334.99,264.18c-0.02,0.02-0.04,0.04-0.05,0.06
			C334.95,264.22,334.97,264.2,334.99,264.18 M336.04,263.24c-0.17,0-0.46,0.28-0.8,0.65C335.58,263.52,335.87,263.24,336.04,263.24
			 M345.48,249.98c-2.38,3.64-4.86,7.21-7.57,10.57c-1.35,1.68-2.78,3.3-4.29,4.79c-1.52,1.48-3.14,2.87-4.91,3.82l-1.72,0.91
			l0.13,0.07l1.57,0.85c11.06,6.01,22.05,12.18,32.97,18.44c10.9,6.31,21.85,12.53,32.65,19c10.8,6.46,21.51,13.09,31.99,20.05
			c5.22,3.5,10.39,7.09,15.45,10.8c5.03,3.74,9.99,7.63,14.31,12.12l1.39,1.58c-0.05-0.83-0.16-1.64-0.47-2.42
			c-0.79-1.43-1.62-2.9-2.56-4.24c-0.47-0.68-0.92-1.38-1.41-2.05l-1.52-1.94c-2.02-2.61-4.16-5.1-6.42-7.44
			c-4.46-4.76-9.16-9.25-14.05-13.43c-9.76-8.41-20.07-16-30.66-23.05c-10.61-7.03-21.51-13.57-32.64-19.64
			c-6.69-3.62-12.93-6.85-19.42-9.96c-1.38-0.66-2.77-1.32-4.18-1.97c-0.56,0.85-1.15,1.7-1.78,2.54c0.63-0.85,1.22-1.69,1.78-2.54
			c-2.61-1.21-5.27-2.4-8.03-3.6c-0.01-0.01-0.03-0.01-0.05-0.01c0.02,0,0.04,0,0.05,0.01c2.76,1.2,5.43,2.4,8.03,3.6
			c0.19-0.29,0.38-0.57,0.56-0.86c1.27-2.04,2.44-4.07,3.54-6.1c1.06-2.06,2.06-4.12,3.02-6.18c1.8-4.2,3.51-8.36,4.95-12.63
			c0.7-2.14,1.38-4.29,2.03-6.45c0.56-2.2,1.19-4.35,1.62-6.6l0.09-2.79C355.86,232.93,350.27,242.73,345.48,249.98 M466.68,225.21
			c-1.48,0.48-6.1,2-6.1,2S465.2,225.69,466.68,225.21L466.68,225.21 M459.15,224.59C459.15,224.59,459.15,224.59,459.15,224.59
			C459.15,224.59,459.15,224.59,459.15,224.59 M366.17,272.1C366.17,272.1,366.17,272.1,366.17,272.1
			C366.17,272.1,366.17,272.1,366.17,272.1 M363.61,271.16c0.05,0.02,0.1,0.04,0.15,0.07C363.71,271.2,363.66,271.18,363.61,271.16
			 M363.15,270.95c0.01,0.01,0.03,0.01,0.04,0.02C363.18,270.96,363.17,270.96,363.15,270.95 M359.45,269.74
			c-0.01,0-0.01,0-0.02,0.01C359.44,269.74,359.45,269.74,359.45,269.74 M363.04,270.9c-1.46-0.66-2.97-1.32-3.52-1.18
			C360.07,269.57,361.57,270.23,363.04,270.9 M359.27,264.73c0.14,0.08,0.32,0.12,0.53,0.12
			C359.59,264.85,359.41,264.81,359.27,264.73 M364.28,262.65c-1.16,0.98-3.28,2.2-4.47,2.2
			C360.99,264.85,363.12,263.63,364.28,262.65 M364.48,262.47c-0.04,0.03-0.07,0.07-0.11,0.1
			C364.41,262.54,364.45,262.5,364.48,262.47 M364.72,262.24c-0.05,0.06-0.11,0.11-0.17,0.17
			C364.61,262.35,364.67,262.29,364.72,262.24 M364.89,262.05c0,0.01-0.01,0.01-0.01,0.01
			C364.88,262.06,364.88,262.05,364.89,262.05 M365.07,261.73c-0.01,0.03-0.02,0.07-0.04,0.1
			C365.05,261.8,365.06,261.76,365.07,261.73 M365.47,260.57c3.41,0.91,6.58,1.8,9.65,2.7
			C372.05,262.37,368.89,261.48,365.47,260.57 M365.42,260.56c0,0-0.01,0-0.01,0C365.42,260.56,365.42,260.56,365.42,260.56
			 M378.99,247.43c-3.7,3.56-7.42,7.1-11.27,10.46c-0.95,0.86-1.93,1.67-2.91,2.5c-0.97,0.83-1.95,1.64-2.96,2.4l-1.5,1.17
			l-1.55,1.07c-1.02,0.77-2.09,1.27-3.14,1.84l-2.24,1.21l0.25,0.08l2.06,0.7c12.34,4.19,24.64,8.54,36.89,13.01
			c12.24,4.49,24.51,8.92,36.66,13.64c12.15,4.71,24.24,9.6,36.12,14.94c5.93,2.69,11.8,5.49,17.55,8.5
			c2.88,1.5,5.69,3.12,8.41,4.86c0.7,0.41,1.34,0.9,2,1.36c0.64,0.48,1.35,0.9,1.94,1.43l1.83,1.54l3.36,3.65l-0.78-2.67
			c-0.4-0.75-0.81-1.55-1.28-2.33l-1.58-2.09c-1.09-1.37-2.29-2.63-3.53-3.82c-2.48-2.38-5.06-4.66-7.78-6.66
			c-5.38-4.14-10.96-7.91-16.69-11.32c-11.45-6.87-23.3-12.8-35.34-18.16c-12.05-5.35-24.29-10.17-36.7-14.45
			c-7.18-2.49-13.37-4.54-19.9-6.49c-0.58-0.17-1.17-0.35-1.76-0.52c0.46-0.49,0.91-0.99,1.35-1.5l2.58-3.02
			c1.71-2.01,3.37-4.06,4.98-6.13c1.64-2.04,3.19-4.17,4.73-6.3c1.54-2.13,3.07-4.24,4.57-6.4l4.32-6.6
			c1.38-2.25,2.77-4.49,4.04-6.83c0.38-0.96,0.47-1.67,0.63-2.45C395.21,231.45,386.39,240.31,378.99,247.43 M466.9,225.14
			c-0.06,0.02-0.14,0.04-0.22,0.07c2.34-0.76,4.69-1.5,7.04-2.25C472.82,223.1,467.52,224.2,466.9,225.14 M473.72,222.96
			C473.72,222.96,473.72,222.96,473.72,222.96C473.72,222.96,473.71,222.96,473.72,222.96
			C473.71,222.96,473.72,222.96,473.72,222.96C473.72,222.96,473.72,222.96,473.72,222.96L473.72,222.96 M394.2,260.51L394.2,260.51
			c3.02,0.56,6.03,1.13,9.05,1.71l0,0C401.86,261.96,394.2,260.51,394.2,260.51 M393.83,256.29c0.07,0.01,0.14,0.01,0.22,0.01
			C393.96,256.3,393.89,256.29,393.83,256.29 M393.81,256.28L393.81,256.28 M398.39,255.37c-1.71,0.58-3.46,0.92-4.34,0.92
			C394.93,256.3,396.68,255.95,398.39,255.37 M398.6,255.3c-0.06,0.02-0.11,0.04-0.17,0.06C398.49,255.34,398.54,255.32,398.6,255.3
			 M398.65,255.28c-0.02,0.01-0.03,0.01-0.05,0.02C398.62,255.29,398.63,255.29,398.65,255.28 M400.21,254.64
			c-0.04,0.02-0.09,0.04-0.13,0.06C400.12,254.68,400.16,254.66,400.21,254.64 M400.21,254.64
			C400.21,254.64,400.21,254.64,400.21,254.64C400.21,254.64,400.21,254.64,400.21,254.64 M400.75,254.36
			c-0.01,0.01-0.02,0.01-0.04,0.02C400.72,254.38,400.73,254.37,400.75,254.36 M401.02,254.21
			C401.02,254.21,401.02,254.21,401.02,254.21C401.02,254.21,401.02,254.21,401.02,254.21 M401.1,254.16
			C401.1,254.16,401.1,254.16,401.1,254.16C401.1,254.16,401.1,254.16,401.1,254.16 M401.18,254.11c-0.01,0.01-0.02,0.01-0.04,0.02
			C401.16,254.13,401.17,254.12,401.18,254.11 M401.67,253.79c-0.04,0.03-0.08,0.06-0.12,0.08
			C401.59,253.84,401.63,253.82,401.67,253.79 M401.96,253.15c-0.03,0.27-0.1,0.48-0.22,0.59
			C401.86,253.63,401.93,253.42,401.96,253.15 M412.77,251.79c0.2,0.03,0.4,0.06,0.6,0.1C413.17,251.86,412.97,251.82,412.77,251.79
			L412.77,251.79 M413.85,251.31L413.85,251.31 M401.94,250.36C401.94,250.36,401.94,250.36,401.94,250.36
			C401.94,250.36,401.94,250.36,401.94,250.36 M401.94,250.36C401.93,250.36,401.93,250.36,401.94,250.36
			C401.93,250.36,401.93,250.36,401.94,250.36 M432.8,220.32c-3.21,3.49-6.49,6.92-9.82,10.3c-3.33,3.38-6.73,6.68-10.13,9.98
			c-3.43,3.27-6.93,6.45-10.55,9.48c0,0-7.53,5.57-8.5,6.21c-0.98,0.62-2.02,1.05-3.02,1.59l-2.79,1.51l2.85,0.51l0.18,0.03
			c1.06,0.19,2.11,0.38,3.17,0.58c0,0,7.67,1.45,9.05,1.71l0,0c6.58,1.27,13.16,2.61,19.72,4c10.62,2.22,21.24,4.46,31.79,7
			c10.55,2.52,21.05,5.24,31.39,8.46c5.16,1.63,10.3,3.34,15.33,5.31c4.98,2.01,10,4.21,14.11,7.53l1.62,1.24
			c0,0-0.32-1.38-0.79-2.16c-0.47-0.78-1.73-2.39-2.76-3.4c-0.51-0.52-1.01-1.1-1.55-1.57l-1.65-1.42
			c-1.11-0.96-2.26-1.78-3.41-2.69c-1.15-0.88-2.36-1.62-3.56-2.42c-2.41-1.51-4.85-3-7.33-4.38c-1.24-0.69-2.5-1.3-3.75-1.96
			c-1.25-0.66-2.52-1.27-3.79-1.85c-10.15-4.8-20.6-8.58-31.15-11.82c-10.55-3.26-21.24-5.81-31.99-7.98
			c-4.75-0.96-8.39-1.65-12.1-2.23c0.16-0.19,0.32-0.39,0.48-0.58c1.47-1.73,2.89-3.48,4.26-5.26c3.01-3.87,5.72-7.98,8.41-12.04
			c2.58-4.17,5-8.38,7.13-12.88c0.28-0.74,0.53-1.53,0.62-2.38L432.8,220.32z M430.65,246.52L430.65,246.52 M430.18,246.47
			c0.03,0,0.07,0.01,0.1,0.01C430.25,246.48,430.22,246.48,430.18,246.47 M429.6,246.44c0.14,0,0.29,0.01,0.44,0.02
			C429.89,246.45,429.74,246.45,429.6,246.44 M429.58,246.44c-0.01,0-0.01,0-0.02,0C429.56,246.44,429.57,246.44,429.58,246.44
			 M432.78,246.31c-0.02,0.01-0.03,0.03-0.05,0.04C432.75,246.33,432.77,246.32,432.78,246.31 M434.61,246.22
			c-0.08,0.03-0.15,0.04-0.23,0.04C434.46,246.26,434.53,246.25,434.61,246.22 M434.62,246.22
			C434.62,246.22,434.62,246.22,434.62,246.22C434.62,246.22,434.62,246.22,434.62,246.22 M434.63,246.21
			C434.63,246.21,434.63,246.21,434.63,246.21C434.63,246.21,434.63,246.21,434.63,246.21 M433.04,246.13
			c-0.01,0-0.02,0.01-0.02,0.01C433.02,246.14,433.03,246.13,433.04,246.13 M433.09,246.11
			C433.09,246.11,433.09,246.11,433.09,246.11C433.09,246.11,433.09,246.11,433.09,246.11 M433.39,246.05
			c-0.09,0-0.19,0.02-0.29,0.06C433.19,246.06,433.29,246.05,433.39,246.05 M434.9,246.05c-0.01,0.01-0.01,0.01-0.02,0.02
			C434.89,246.06,434.9,246.05,434.9,246.05 M427.93,244.58l0.53,2.14L427.93,244.58 M433.83,243.43c-0.01,0-0.03,0-0.04,0
			C433.8,243.43,433.82,243.43,433.83,243.43 M430.47,243.23c1.02,0.1,2.18,0.2,3.28,0.2C432.65,243.43,431.5,243.33,430.47,243.23
			 M428.06,243c0.31,0.02,0.68,0.05,1.11,0.09C428.75,243.05,428.37,243.02,428.06,243 M427.75,242.99
			C427.75,242.99,427.75,242.99,427.75,242.99C427.75,242.99,427.75,242.99,427.75,242.99 M437.99,242.36
			c-0.01,0.01-0.02,0.02-0.04,0.04C437.96,242.38,437.98,242.37,437.99,242.36 M438.03,242.32c-0.01,0.01-0.03,0.03-0.04,0.04
			C438,242.35,438.02,242.33,438.03,242.32 M437.29,239.42c0.47,0.99,0.87,1.95,0.86,2.5C438.15,241.37,437.76,240.41,437.29,239.42
			L437.29,239.42 M435.68,235.9c0,0.45,0.89,2.03,1.61,3.52C436.57,237.93,435.68,236.35,435.68,235.9 M435.76,235.77
			c-0.03,0.03-0.05,0.05-0.08,0.08C435.69,235.81,435.72,235.78,435.76,235.77 M444.45,235.57c-0.27,0-0.54,0-0.81,0
			C443.9,235.57,444.17,235.57,444.45,235.57 M439.6,244.47c2.33-2.92,4.43-5.87,6.34-8.91
			C444.03,238.61,441.93,241.55,439.6,244.47c-0.65,0.77-1.26,1.54-1.95,2.31l-2.68-0.79c-0.01,0.01-0.01,0.01-0.02,0.02
			c0.01-0.01,0.01-0.01,0.02-0.02l2.68,0.79C438.34,246.01,438.95,245.24,439.6,244.47 M445.26,235.56c-0.02,0-0.05,0-0.07,0
			C445.21,235.56,445.23,235.56,445.26,235.56 M455.48,213.62c-4.58,5.69-9.38,11.24-14.35,16.58c-1.74,1.91-3.53,3.77-5.36,5.58
			c-0.05,0-0.07,0.03-0.08,0.08c-0.73,0.72-1.47,1.43-2.21,2.13c-1.9,1.77-3.85,3.52-5.93,5.01c0.03,0,0.06,0,0.1-0.01
			c-0.04,0-0.07,0-0.1,0.01c0,0,0,0,0,0l0.39,1.58l-0.39-1.58c-0.81,0.59-1.65,1.13-2.5,1.63l-3.11,1.81l2.15,0.09l1.45,0.06
			c9.88,0.41,19.76,0.89,29.63,1.43l29.62,1.59c9.87,0.6,19.73,1.27,29.58,2.1c9.82,0.96,19.71,1.69,29.36,3.55l1.77,0.35
			c-0.29-0.56-0.9-1.14-1.5-1.56c-4.53-2.61-9.39-4.63-14.22-6.34c-4.85-1.69-9.73-3.12-14.65-4.34c-9.81-2.43-19.7-4.14-29.6-5.37
			c-9.9-1.18-19.82-2-29.76-2.25c-3.72-0.11-6.77-0.18-9.82-0.19c0.13-0.2,0.27-0.41,0.39-0.61c0.37-0.59,0.71-1.2,1.07-1.8
			c1.61-2.68,3.14-5.39,4.53-8.18c1.72-3.4,3.23-6.93,4.52-10.59c0.24-0.76,0.37-1.54,0.25-2.29L455.48,213.62z M465.18,217.4
			c-1.86,2.54-3.83,5.08-6.03,7.18c3.36-1.49,9.49-11.18,10.13-13.15C467.95,213.45,466.59,215.45,465.18,217.4 M469.28,211.43
			C469.28,211.43,469.28,211.43,469.28,211.43C469.28,211.43,469.28,211.43,469.28,211.43L469.28,211.43 M469.5,211.35
			c0.29-0.11,0.39-0.14,0.38-0.14C469.88,211.21,469.5,211.34,469.5,211.35 M518.03,202.07c-7.45,0.14-14.73,0.98-21.85,2.29
			c-5.43,1.02-10.8,2.24-16.08,3.71c-0.46,1.36-0.94,2.72-1.46,4.07l-1.12,2.85c-0.39,0.94-0.83,1.87-1.25,2.81
			c-0.81,1.89-1.57,3.31-2.56,5.17c1.74-0.55,3.48-1.1,5.22-1.66c6.73-2.17,13.49-4.26,20.27-6.22c6.79-1.96,13.61-3.81,20.49-5.37
			c3.44-0.76,6.89-1.49,10.35-2.05c1.73-0.28,3.47-0.48,5.2-0.61c1.72-0.07,3.49-0.14,5.06,0.28c0.54,0.12,1.51,0.33,2.21,0.54
			c-0.56-0.64-1.2-1.16-1.85-1.73c-0.41-0.27-0.84-0.58-1.31-0.84c-0.46-0.22-0.91-0.41-1.39-0.62c-0.95-0.4-1.9-0.71-2.87-0.95
			c-1.91-0.45-3.85-0.89-5.75-1.1c-3.47-0.46-6.9-0.57-10.29-0.57C518.73,202.07,518.38,202.07,518.03,202.07 M469.57,211.33
			c-0.05,0.02-0.07,0.02-0.07,0.02C469.5,211.35,469.52,211.35,469.57,211.33 M469.88,211.21c0,0-0.09,0.04-0.38,0.14
			C469.5,211.34,469.88,211.21,469.88,211.21 M470.1,211.15c1.7-0.58,3.4-1.15,5.12-1.65c1.12-0.35,2.25-0.67,3.38-0.99
			c-1.13,0.33-2.26,0.64-3.38,0.99C473.5,210,471.8,210.57,470.1,211.15c-0.01,0-0.01,0-0.02,0.01
			C470.09,211.16,470.1,211.15,470.1,211.15 M478.6,208.51L478.6,208.51 M480.1,208.07L480.1,208.07 M480.58,206.63L480.58,206.63
			 M483.43,187.78c-1.87,3.39-3.8,6.75-5.77,10.09c-1.99,3.32-3.99,6.64-6.03,9.92c-0.77,1.22-1.55,2.44-2.34,3.64
			c0.08-0.03,0.15-0.05,0.21-0.08l0,0c-0.06,0.02-0.13,0.05-0.21,0.08h0c-0.65,1.98-6.77,11.66-10.13,13.15c0,0,0,0,0,0
			c-0.47,0.45-0.95,0.88-1.45,1.29l-1.19,0.98l-3.54,2.92l5.78-1.95c0.61-0.21,1.21-0.41,1.82-0.61l-1.3-2.38l1.3,2.38
			c2.03-0.68,4.07-1.34,6.1-2c0.08-0.03,0.16-0.05,0.22-0.07c0.62-0.94,5.92-2.04,6.82-2.18c0,0,0,0,0,0
			c0.99-1.86,1.75-3.28,2.56-5.17c0.42-0.94,0.86-1.87,1.25-2.81l1.12-2.85c0.52-1.35,1-2.7,1.46-4.07
			c0.16-0.48,0.33-0.96,0.48-1.44c0.64-2.01,1.23-4.04,1.76-6.1c1.01-3.94,1.8-7.98,2.18-12.18c0.03-0.82-0.03-1.58-0.2-2.23
			L483.43,187.78z"/>
	</defs>
	<clipPath id="SVGID_7_">
		<use xlink:href="#SVGID_6_"  style="overflow:visible;"/>
	</clipPath>
	
		<linearGradient id="SVGID_8_" gradientUnits="userSpaceOnUse" x1="0" y1="611.9463" x2="1" y2="611.9463" gradientTransform="matrix(259.1993 161.8835 161.8835 -259.1993 -98814.7422 158798.4375)">
		<stop  offset="0" style="stop-color:#F3C100"/>
		<stop  offset="0.3913" style="stop-color:#F3C100"/>
		<stop  offset="0.9469" style="stop-color:#3BAA35"/>
		<stop  offset="1" style="stop-color:#3BAA35"/>
	</linearGradient>
	<polygon class="st1" points="371.36,77.37 640.45,245.43 477.57,506.23 208.47,338.17 	"/>
</g>
<g>
	<defs>
		<rect id="SVGID_9_" width="792" height="612"/>
	</defs>
	<clipPath id="SVGID_10_">
		<use xlink:href="#SVGID_9_"  style="overflow:visible;"/>
	</clipPath>
	<polygon class="st2" points="230.99,337.94 241.27,337.94 245.17,336.14 221.99,336.14 221.99,346.84 230.99,342.69 	"/>
	<polygon class="st3" points="230.99,342.69 221.99,346.84 221.99,359.74 230.99,355.58 	"/>
	<polygon class="st3" points="251.8,337.94 252.52,336.14 245.17,336.14 241.27,337.94 	"/>
	<polygon class="st4" points="230.99,366.92 221.99,364.53 221.99,372.22 230.99,368.06 	"/>
	<polygon class="st4" points="230.99,364 239.78,364 243.68,362.2 230.99,362.2 230.99,355.58 221.99,359.74 221.99,364.53 
		230.99,366.92 	"/>
	<polygon class="st5" points="221.99,384.76 221.99,385.78 223.4,385.13 	"/>
	<polygon class="st5" points="230.99,381.63 230.99,376.71 221.99,374.32 221.99,384.76 223.4,385.13 	"/>
	<polygon class="st5" points="230.99,368.06 221.99,372.22 221.99,374.32 230.99,376.71 	"/>
	<polygon class="st5" points="243.95,364 243.99,363.9 243.62,364 	"/>
	<polygon class="st5" points="243.99,363.9 244.67,362.21 243.68,362.21 239.78,364.01 243.62,364.01 	"/>
	<path class="st6" d="M215.67,395.56c-0.83,1.46-1.33,3.07-1.49,4.83l7.19-3.32L215.67,395.56z"/>
	<path class="st6" d="M228.96,389.4c-0.29-0.05-0.58-0.09-0.87-0.12C228.38,389.31,228.67,389.35,228.96,389.4"/>
	<path class="st6" d="M230.1,389.66c-0.25-0.07-0.5-0.13-0.76-0.19C229.6,389.53,229.85,389.59,230.1,389.66"/>
	<path class="st6" d="M225.2,389.28c-0.27,0.03-0.53,0.07-0.78,0.11C224.67,389.35,224.93,389.31,225.2,389.28"/>
	<path class="st6" d="M226.83,389.21c0.31,0,0.62,0.02,0.93,0.04C227.44,389.23,227.13,389.21,226.83,389.21"/>
	<path class="st6" d="M226.49,389.21c-0.29,0.01-0.58,0.02-0.86,0.04C225.91,389.23,226.2,389.21,226.49,389.21"/>
	<path class="st6" d="M225.2,389.28c0.14-0.01,0.28-0.03,0.43-0.04c0.28-0.02,0.57-0.03,0.86-0.04c0.06,0,0.13-0.01,0.19-0.01
		c0.05,0,0.1,0.01,0.15,0.01c0.31,0,0.62,0.02,0.93,0.04c0.11,0.01,0.22,0.02,0.33,0.03c0.29,0.03,0.58,0.07,0.87,0.12
		c0.13,0.02,0.26,0.05,0.39,0.07c0.25,0.05,0.51,0.12,0.76,0.19c0.19,0.05,0.38,0.11,0.56,0.17c0.11,0.04,0.22,0.06,0.32,0.1v-2.78
		l-7.59-2.02l-1.41,0.65v4.27c0.57-0.24,1.28-0.44,2.07-0.6c0.12-0.02,0.24-0.04,0.35-0.06
		C224.67,389.35,224.93,389.31,225.2,389.28"/>
	<path class="st6" d="M233.73,391.37c-0.96-0.67-1.98-1.18-3.06-1.54c-0.19-0.06-0.38-0.12-0.56-0.17c-0.25-0.07-0.5-0.13-0.76-0.18
		c-0.13-0.03-0.26-0.05-0.39-0.07c-0.29-0.05-0.58-0.09-0.87-0.12c-0.11-0.01-0.22-0.02-0.33-0.03c-0.31-0.02-0.62-0.04-0.93-0.04
		c-0.11,0-0.23,0-0.34,0c-0.29,0-0.58,0.02-0.86,0.04c-0.14,0.01-0.29,0.02-0.43,0.04c-0.26,0.03-0.52,0.07-0.78,0.11
		c-0.12,0.02-0.24,0.04-0.36,0.06c-2.35,0.47-4.43,1.58-6.25,3.35c-0.87,0.85-1.58,1.77-2.14,2.76l5.7,1.51L233.73,391.37z"/>
	<path class="st6" d="M228.09,389.28c-0.11-0.01-0.22-0.02-0.33-0.03C227.87,389.26,227.98,389.27,228.09,389.28"/>
	<path class="st6" d="M229.35,389.47c-0.13-0.03-0.26-0.05-0.39-0.07C229.09,389.42,229.22,389.45,229.35,389.47"/>
	<path class="st6" d="M230.67,389.83c-0.19-0.06-0.37-0.12-0.56-0.17C230.29,389.71,230.48,389.77,230.67,389.83"/>
	<path class="st6" d="M224.06,389.45c0.12-0.02,0.23-0.04,0.35-0.06C224.3,389.41,224.18,389.43,224.06,389.45"/>
	<path class="st6" d="M226.49,389.21c0.11,0,0.22,0,0.34,0c-0.05,0-0.1-0.01-0.15-0.01C226.61,389.2,226.55,389.21,226.49,389.21"/>
	<path class="st6" d="M225.63,389.25c-0.14,0.01-0.29,0.02-0.43,0.04C225.34,389.27,225.48,389.26,225.63,389.25"/>
	<polygon class="st6" points="230.99,387.15 230.99,381.63 223.4,385.13 	"/>
	<path class="st7" d="M217.81,410.63c2.46,2.47,5.42,3.7,8.87,3.7c2.38,0,4.52-0.6,6.43-1.77l-17.37-4.62
		C216.29,408.89,216.97,409.79,217.81,410.63"/>
	<path class="st7" d="M221.37,397.08l-7.19,3.32c-0.04,0.45-0.07,0.9-0.07,1.37c0,2.27,0.55,4.33,1.62,6.17l17.37,4.62
		c0.86-0.53,1.68-1.16,2.44-1.92c2.46-2.46,3.7-5.42,3.7-8.87c0-0.15-0.02-0.29-0.02-0.44l-0.91,0.25L221.37,397.08z"/>
	<path class="st7" d="M233.73,391.37l-12.36,5.71l16.94,4.5l0.91-0.25c-0.1-3.26-1.32-6.07-3.68-8.43
		C234.97,392.32,234.36,391.81,233.73,391.37"/>
</g>
</svg>
